# xmcd
#
# Track frame offsets: 
#        150
#        14525
#        47232
#        90687
#        116210
#        136230
#        153146
#        180936
#        204696
#        233117
#        249110
#
# Disc length: 3774 seconds
#
# Revision: 0
# Processed by: cddbd v1.5.2PL0 Copyright (c) Steve Scherf et al.
# Submitted via: ExactAudioCopy v0.95b3
#
DISCID=880ebc0b
DTITLE=Deep Purple  - Masters From the Vault 1969-72 - 320K
DYEAR=1900
DGENRE=
TTITLE0=Speed King
TTITLE1=No No No
TTITLE2=Child in Time
TTITLE3=Highway Star
TTITLE4=Wring That Neck
TTITLE5=Hallelujah
TTITLE6=Mandrake Root Improvisation
TTITLE7=Demon´s Eye
TTITLE8=When a Blind Man Cries
TTITLE9=Lucille
TTITLE10=Smoke on the Water
EXTD=
EXTT0=
EXTT1=
EXTT2=
EXTT3=
EXTT4=
EXTT5=
EXTT6=
EXTT7=
EXTT8=
EXTT9=
EXTT10=
PLAYORDER=
